<?xml version="1.0" encoding="UTF-8"?>
<mxfile host="app.diagrams.net" modified="2024-01-18T01:35:00.000Z" agent="Mozilla/5.0" version="21.6.6" etag="your-etag">
  <diagram id="system-architecture" name="システム構成図">
    <mxGraphModel dx="1422" dy="762" grid="1" gridSize="10" guides="1" tooltips="1" connect="1" arrows="1" fold="1" page="1" pageScale="1" pageWidth="1169" pageHeight="827" math="0" shadow="0">
      <root>
        <mxCell id="0"/>
        <mxCell id="1" parent="0"/>
        
        <!-- AWS Cloud -->
        <mxCell id="2" value="AWS Cloud" style="points=[[0,0],[0.25,0],[0.5,0],[0.75,0],[1,0],[1,0.25],[1,0.5],[1,0.75],[1,1],[0.75,1],[0.5,1],[0.25,1],[0,1],[0,0.75],[0,0.5],[0,0.25]];outlineConnect=0;gradientColor=none;html=1;whiteSpace=wrap;fontSize=12;fontStyle=0;container=1;pointerEvents=0;collapsible=0;recursiveResize=0;shape=mxgraph.aws4.group;grIcon=mxgraph.aws4.group_aws_cloud;strokeColor=#232F3E;fillColor=none;verticalAlign=top;align=left;spacingLeft=30;fontColor=#232F3E;dashed=0;" vertex="1" parent="1">
          <mxGeometry x="160" y="80" width="880" height="640" as="geometry"/>
        </mxCell>

        <!-- VPC -->
        <mxCell id="3" value="VPC" style="points=[[0,0],[0.25,0],[0.5,0],[0.75,0],[1,0],[1,0.25],[1,0.5],[1,0.75],[1,1],[0.75,1],[0.5,1],[0.25,1],[0,1],[0,0.75],[0,0.5],[0,0.25]];outlineConnect=0;gradientColor=none;html=1;whiteSpace=wrap;fontSize=12;fontStyle=0;container=1;pointerEvents=0;collapsible=0;recursiveResize=0;shape=mxgraph.aws4.group;grIcon=mxgraph.aws4.group_vpc;strokeColor=#248814;fillColor=none;verticalAlign=top;align=left;spacingLeft=30;fontColor=#AAB7B8;dashed=0;" vertex="1" parent="2">
          <mxGeometry x="40" y="40" width="800" height="560" as="geometry"/>
        </mxCell>

        <!-- Public Subnet -->
        <mxCell id="4" value="Public Subnet" style="points=[[0,0],[0.25,0],[0.5,0],[0.75,0],[1,0],[1,0.25],[1,0.5],[1,0.75],[1,1],[0.75,1],[0.5,1],[0.25,1],[0,1],[0,0.75],[0,0.5],[0,0.25]];outlineConnect=0;gradientColor=none;html=1;whiteSpace=wrap;fontSize=12;fontStyle=0;container=1;pointerEvents=0;collapsible=0;recursiveResize=0;shape=mxgraph.aws4.group;grIcon=mxgraph.aws4.group_security_group;grStroke=0;strokeColor=#248814;fillColor=#E9F3E6;verticalAlign=top;align=left;spacingLeft=30;fontColor=#248814;dashed=0;" vertex="1" parent="3">
          <mxGeometry x="40" y="40" width="720" height="160" as="geometry"/>
        </mxCell>

        <!-- Private Subnet -->
        <mxCell id="5" value="Private Subnet" style="points=[[0,0],[0.25,0],[0.5,0],[0.75,0],[1,0],[1,0.25],[1,0.5],[1,0.75],[1,1],[0.75,1],[0.5,1],[0.25,1],[0,1],[0,0.75],[0,0.5],[0,0.25]];outlineConnect=0;gradientColor=none;html=1;whiteSpace=wrap;fontSize=12;fontStyle=0;container=1;pointerEvents=0;collapsible=0;recursiveResize=0;shape=mxgraph.aws4.group;grIcon=mxgraph.aws4.group_security_group;grStroke=0;strokeColor=#147EBA;fillColor=#E6F2F8;verticalAlign=top;align=left;spacingLeft=30;fontColor=#147EBA;dashed=0;" vertex="1" parent="3">
          <mxGeometry x="40" y="240" width="720" height="280" as="geometry"/>
        </mxCell>

        <!-- Route 53 -->
        <mxCell id="6" value="Route 53" style="sketch=0;points=[[0,0,0],[0.25,0,0],[0.5,0,0],[0.75,0,0],[1,0,0],[0,1,0],[0.25,1,0],[0.5,1,0],[0.75,1,0],[1,1,0],[0,0.25,0],[0,0.5,0],[0,0.75,0],[1,0.25,0],[1,0.5,0],[1,0.75,0]];outlineConnect=0;fontColor=#232F3E;gradientColor=#945DF2;gradientDirection=north;fillColor=#5A30B5;strokeColor=#ffffff;dashed=0;verticalLabelPosition=bottom;verticalAlign=top;align=center;html=1;fontSize=12;fontStyle=0;aspect=fixed;shape=mxgraph.aws4.resourceIcon;resIcon=mxgraph.aws4.route_53;" vertex="1" parent="2">
          <mxGeometry x="880" y="40" width="78" height="78" as="geometry"/>
        </mxCell>

        <!-- ALB -->
        <mxCell id="7" value="Application Load Balancer" style="sketch=0;outlineConnect=0;fontColor=#232F3E;gradientColor=none;fillColor=#4D27AA;strokeColor=none;dashed=0;verticalLabelPosition=bottom;verticalAlign=top;align=center;html=1;fontSize=12;fontStyle=0;aspect=fixed;pointerEvents=1;shape=mxgraph.aws4.application_load_balancer;" vertex="1" parent="4">
          <mxGeometry x="321" y="40" width="78" height="78" as="geometry"/>
        </mxCell>

        <!-- ECS Cluster -->
        <mxCell id="8" value="ECS Cluster" style="sketch=0;points=[[0,0,0],[0.25,0,0],[0.5,0,0],[0.75,0,0],[1,0,0],[0,1,0],[0.25,1,0],[0.5,1,0],[0.75,1,0],[1,1,0],[0,0.25,0],[0,0.5,0],[0,0.75,0],[1,0.25,0],[1,0.5,0],[1,0.75,0]];outlineConnect=0;fontColor=#232F3E;gradientColor=#F78E04;gradientDirection=north;fillColor=#D05C17;strokeColor=#ffffff;dashed=0;verticalLabelPosition=bottom;verticalAlign=top;align=center;html=1;fontSize=12;fontStyle=0;aspect=fixed;shape=mxgraph.aws4.resourceIcon;resIcon=mxgraph.aws4.ecs;" vertex="1" parent="5">
          <mxGeometry x="321" y="40" width="78" height="78" as="geometry"/>
        </mxCell>

        <!-- DocumentDB -->
        <mxCell id="9" value="DocumentDB" style="sketch=0;points=[[0,0,0],[0.25,0,0],[0.5,0,0],[0.75,0,0],[1,0,0],[0,1,0],[0.25,1,0],[0.5,1,0],[0.75,1,0],[1,1,0],[0,0.25,0],[0,0.5,0],[0,0.75,0],[1,0.25,0],[1,0.5,0],[1,0.75,0]];outlineConnect=0;fontColor=#232F3E;gradientColor=#4D72F3;gradientDirection=north;fillColor=#3334B9;strokeColor=#ffffff;dashed=0;verticalLabelPosition=bottom;verticalAlign=top;align=center;html=1;fontSize=12;fontStyle=0;aspect=fixed;shape=mxgraph.aws4.resourceIcon;resIcon=mxgraph.aws4.documentdb_with_mongodb_compatibility;" vertex="1" parent="5">
          <mxGeometry x="321" y="160" width="78" height="78" as="geometry"/>
        </mxCell>

        <!-- CloudWatch -->
        <mxCell id="10" value="CloudWatch" style="sketch=0;points=[[0,0,0],[0.25,0,0],[0.5,0,0],[0.75,0,0],[1,0,0],[0,1,0],[0.25,1,0],[0.5,1,0],[0.75,1,0],[1,1,0],[0,0.25,0],[0,0.5,0],[0,0.75,0],[1,0.25,0],[1,0.5,0],[1,0.75,0]];points=[[0,0,0],[0.25,0,0],[0.5,0,0],[0.75,0,0],[1,0,0],[0,1,0],[0.25,1,0],[0.5,1,0],[0.75,1,0],[1,1,0],[0,0.25,0],[0,0.5,0],[0,0.75,0],[1,0.25,0],[1,0.5,0],[1,0.75,0]];outlineConnect=0;fontColor=#232F3E;gradientColor=#F34482;gradientDirection=north;fillColor=#BC1356;strokeColor=#ffffff;dashed=0;verticalLabelPosition=bottom;verticalAlign=top;align=center;html=1;fontSize=12;fontStyle=0;aspect=fixed;shape=mxgraph.aws4.resourceIcon;resIcon=mxgraph.aws4.cloudwatch_2;" vertex="1" parent="2">
          <mxGeometry x="880" y="160" width="78" height="78" as="geometry"/>
        </mxCell>

        <!-- Connections -->
        <mxCell id="11" value="" style="endArrow=classic;html=1;rounded=0;" edge="1" parent="2" source="7" target="8">
          <mxGeometry width="50" height="50" relative="1" as="geometry"/>
        </mxCell>

        <mxCell id="12" value="" style="endArrow=classic;html=1;rounded=0;" edge="1" parent="2" source="8" target="9">
          <mxGeometry width="50" height="50" relative="1" as="geometry"/>
        </mxCell>

        <mxCell id="13" value="" style="endArrow=classic;html=1;rounded=0;dashed=1;" edge="1" parent="2" source="8" target="10">
          <mxGeometry width="50" height="50" relative="1" as="geometry"/>
        </mxCell>
      </root>
    </mxGraphModel>
  </diagram>

  <diagram id="deployment-flow" name="デプロイメントフロー">
    <mxGraphModel dx="1422" dy="762" grid="1" gridSize="10" guides="1" tooltips="1" connect="1" arrows="1" fold="1" page="1" pageScale="1" pageWidth="1169" pageHeight="827" math="0" shadow="0">
      <root>
        <mxCell id="0"/>
        <mxCell id="1" parent="0"/>

        <!-- GitHub -->
        <mxCell id="2" value="GitHub" style="shape=image;verticalLabelPosition=bottom;labelBackgroundColor=default;verticalAlign=top;aspect=fixed;imageAspect=0;image=data:image/svg+xml,PHN2ZyB4bWxucz0iaHR0cDovL3d3dy53My5vcmcvMjAwMC9zdmciIHZpZXdCb3g9IjAgMCA0OTYgNTEyIj48cGF0aCBkPSJNMTY1LjkgMzk3LjRjMCAyLTIuMyAzLjYtNS4yIDMuNi0zLjMuMy01LjYtMS4zLTUuNi0zLjYgMC0yIDIuMy0zLjYgNS4yLTMuNiAzLS4zIDUuNiAxLjMgNS42IDMuNnptLTMxLjEtNC41Yy0uNyAyIDEuMyA0LjMgNC4zIDQuOSAyLjYgMSA1LjYgMCA2LjItMnMtMS4zLTQuMy00LjMtNS4yYy0yLjYtLjctNS41LjMtNi4yIDIuM3ptNDQuMi0xLjdjLTIuOS43LTQuOSAyLjYtNC42IDQuOS4zIDIgMi45IDMuMyA1LjkgMi42IDIuOS0uNyA0LjktMi42IDQuNi00LjYtLjMtMS45LTMtMy4yLTUuOS0yLjl6TTI0NC44IDhDMTA2LjEgOCAwIDExMy4zIDAgMjUyYzAgMTEwLjkgNjkuOCAyMDUuOCAxNjkuNSAyMzkuMiAxMi44IDIuMyAxNy4zLTUuNiAxNy4zLTEyLjEgMC02LjItLjMtNDAuNC0uMy02MS40IDAgMC03MCAxNS04NC43LTI5LjggMCAwLTExLjQtMjkuMS0yNy44LTM2LjYgMCAwLTIyLjktMTUuNyAxLjYtMTUuNCAwIDAgMjQuOSAyIDM4LjYgMjUuOCAyMS45IDM4LjYgNTguNiAyNy41IDcyLjkgMjAuOSAyLjMtMTYgOC44LTI3LjEgMTYtMzMuNy01NS45LTYuMi0xMTIuMy0xNC4zLTExMi4zLTExMC41IDAtMjcuNSA3LjYtNDEuMyAyMy42LTU4LjktMi42LTYuNS0xMS4xLTMzLjMgMi42LTY3LjkgMjAuOS02LjUgNjkgMjcgNjkgMjcgMjAtNS42IDQxLjUtOC41IDYyLjgtOC41czQyLjggMi45IDYyLjggOC41YzAgMCA0OC4xLTMzLjYgNjktMjcgMTMuNyAzNC43IDUuMiA2MS40IDIuNiA2Ny45IDE2IDE3LjcgMjUuOCAzMS41IDI1LjggNTguOSAwIDk2LjUtNTguOSAxMDQuMi0xMTQuOCAxMTAuNSA5LjIgNy45IDE3IDIyLjkgMTcgNDYuNCAwIDMzLjctLjMgNzUuNC0uMyA4My42IDAgNi41IDQuNiAxNC40IDE3LjMgMTIuMUM0MjguMiA0NTcuOCA0OTYgMzYyLjkgNDk2IDI1MiA0OTYgMTEzLjMgMzgzLjUgOCAyNDQuOCA4ek05Ny4yIDM1Mi45Yy0xLjMgMS0xIDMuMy43IDUuMiAxLjYgMS42IDMuOSAyLjMgNS4yIDEgMS4zLTEgMS0zLjMtLjctNS4yLTEuNi0xLjYtMy45LTIuMy01LjItMXptLTEwLjgtOC4xYy0uNyAxLjMuMyAyLjkgMi4zIDMuOSAxLjYgMSAzLjYuNyA0LjMtLjcuNy0xLjMtLjMtMi45LTIuMy0zLjktMi0uNi0zLjYtLjMtNC4zLjd6bTMyLjQgMzUuNmMtMS42IDEuMy0xIDQuMyAxLjMgNi4yIDIuMyAyLjMgNS4yIDIuNiA2LjUgMSAxLjMtMS4zLjctNC4zLTEuMy02LjItMi4yLTIuMy01LjItMi42LTYuNS0xem0tMTEuNC0xNC43Yy0xLjYgMS0xLjYgMy42IDAgNS45IDEuNiAyLjMgNC4zIDMuMyA1LjYgMi4zIDEuNi0xLjMgMS42LTMuOSAwLTYuMi0xLjQtMi4zLTQtMy4zLTUuNi0yeiIvPjwvc3ZnPg==;" vertex="1" parent="1">
          <mxGeometry x="120" y="200" width="80" height="80" as="geometry"/>
        </mxCell>

        <!-- GitHub Actions -->
        <mxCell id="3" value="GitHub Actions" style="shape=image;verticalLabelPosition=bottom;labelBackgroundColor=default;verticalAlign=top;aspect=fixed;imageAspect=0;image=data:image/svg+xml,PHN2ZyB4bWxucz0iaHR0cDovL3d3dy53My5vcmcvMjAwMC9zdmciIHZpZXdCb3g9IjAgMCA0OTYgNTEyIj48cGF0aCBkPSJNMTY1LjkgMzk3LjRjMCAyLTIuMyAzLjYtNS4yIDMuNi0zLjMuMy01LjYtMS4zLTUuNi0zLjYgMC0yIDIuMy0zLjYgNS4yLTMuNiAzLS4zIDUuNiAxLjMgNS42IDMuNnptLTMxLjEtNC41Yy0uNyAyIDEuMyA0LjMgNC4zIDQuOSAyLjYgMSA1LjYgMCA2LjItMnMtMS4zLTQuMy00LjMtNS4yYy0yLjYtLjctNS41LjMtNi4yIDIuM3ptNDQuMi0xLjdjLTIuOS43LTQuOSAyLjYtNC42IDQuOS4zIDIgMi45IDMuMyA1LjkgMi42IDIuOS0uNyA0LjktMi42IDQuNi00LjYtLjMtMS45LTMtMy4yLTUuOS0yLjl6TTI0NC44IDhDMTA2LjEgOCAwIDExMy4zIDAgMjUyYzAgMTEwLjkgNjkuOCAyMDUuOCAxNjkuNSAyMzkuMiAxMi44IDIuMyAxNy4zLTUuNiAxNy4zLTEyLjEgMC02LjItLjMtNDAuNC0uMy02MS40IDAgMC03MCAxNS04NC43LTI5LjggMCAwLTExLjQtMjkuMS0yNy44LTM2LjYgMCAwLTIyLjktMTUuNyAxLjYtMTUuNCAwIDAgMjQuOSAyIDM4LjYgMjUuOCAyMS45IDM4LjYgNTguNiAyNy41IDcyLjkgMjAuOSAyLjMtMTYgOC44LTI3LjEgMTYtMzMuNy01NS45LTYuMi0xMTIuMy0xNC4zLTExMi4zLTExMC41IDAtMjcuNSA3LjYtNDEuMyAyMy42LTU4LjktMi42LTYuNS0xMS4xLTMzLjMgMi42LTY3LjkgMjAuOS02LjUgNjkgMjcgNjkgMjcgMjAtNS42IDQxLjUtOC41IDYyLjgtOC41czQyLjggMi45IDYyLjggOC41YzAgMCA0OC4xLTMzLjYgNjktMjcgMTMuNyAzNC43IDUuMiA2MS40IDIuNiA2Ny45IDE2IDE3LjcgMjUuOCAzMS41IDI1LjggNTguOSAwIDk2LjUtNTguOSAxMDQuMi0xMTQuOCAxMTAuNSA5LjIgNy45IDE3IDIyLjkgMTcgNDYuNCAwIDMzLjctLjMgNzUuNC0uMyA4My42IDAgNi41IDQuNiAxNC40IDE3LjMgMTIuMUM0MjguMiA0NTcuOCA0OTYgMzYyLjkgNDk2IDI1MiA0OTYgMTEzLjMgMzgzLjUgOCAyNDQuOCA4ek05Ny4yIDM1Mi45Yy0xLjMgMS0xIDMuMy43IDUuMiAxLjYgMS42IDMuOSAyLjMgNS4yIDEgMS4zLTEgMS0zLjMtLjctNS4yLTEuNi0xLjYtMy45LTIuMy01LjItMXptLTEwLjgtOC4xYy0uNyAxLjMuMyAyLjkgMi4zIDMuOSAxLjYgMSAzLjYuNyA0LjMtLjcuNy0xLjMtLjMtMi45LTIuMy0zLjktMi0uNi0zLjYtLjMtNC4zLjd6bTMyLjQgMzUuNmMtMS42IDEuMy0xIDQuMyAxLjMgNi4yIDIuMyAyLjMgNS4yIDIuNiA2LjUgMSAxLjMtMS4zLjctNC4zLTEuMy02LjItMi4yLTIuMy01LjItMi42LTYuNS0xem0tMTEuNC0xNC43Yy0xLjYgMS0xLjYgMy42IDAgNS45IDEuNiAyLjMgNC4zIDMuMyA1LjYgMi4zIDEuNi0xLjMgMS42LTMuOSAwLTYuMi0xLjQtMi4zLTQtMy4zLTUuNi0yeiIvPjwvc3ZnPg==;" vertex="1" parent="1">
          <mxGeometry x="320" y="200" width="80" height="80" as="geometry"/>
        </mxCell>

        <!-- ECR -->
        <mxCell id="4" value="Amazon ECR" style="sketch=0;points=[[0,0,0],[0.25,0,0],[0.5,0,0],[0.75,0,0],[1,0,0],[0,1,0],[0.25,1,0],[0.5,1,0],[0.75,1,0],[1,1,0],[0,0.25,0],[0,0.5,0],[0,0.75,0],[1,0.25,0],[1,0.5,0],[1,0.75,0]];outlineConnect=0;fontColor=#232F3E;gradientColor=#F78E04;gradientDirection=north;fillColor=#D05C17;strokeColor=#ffffff;dashed=0;verticalLabelPosition=bottom;verticalAlign=top;align=center;html=1;fontSize=12;fontStyle=0;aspect=fixed;shape=mxgraph.aws4.resourceIcon;resIcon=mxgraph.aws4.ecr;" vertex="1" parent="1">
          <mxGeometry x="520" y="200" width="80" height="80" as="geometry"/>
        </mxCell>

        <!-- ECS -->
        <mxCell id="5" value="Amazon ECS" style="sketch=0;points=[[0,0,0],[0.25,0,0],[0.5,0,0],[0.75,0,0],[1,0,0],[0,1,0],[0.25,1,0],[0.5,1,0],[0.75,1,0],[1,1,0],[0,0.25,0],[0,0.5,0],[0,0.75,0],[1,0.25,0],[1,0.5,0],[1,0.75,0]];outlineConnect=0;fontColor=#232F3E;gradientColor=#F78E04;gradientDirection=north;fillColor=#D05C17;strokeColor=#ffffff;dashed=0;verticalLabelPosition=bottom;verticalAlign=top;align=center;html=1;fontSize=12;fontStyle=0;aspect=fixed;shape=mxgraph.aws4.resourceIcon;resIcon=mxgraph.aws4.ecs;" vertex="1" parent="1">
          <mxGeometry x="720" y="200" width="80" height="80" as="geometry"/>
        </mxCell>

        <!-- Connections -->
        <mxCell id="6" value="git push" style="endArrow=classic;html=1;rounded=0;" edge="1" parent="1" source="2" target="3">
          <mxGeometry width="50" height="50" relative="1" as="geometry"/>
        </mxCell>

        <mxCell id="7" value="build &amp; test" style="endArrow=classic;html=1;rounded=0;" edge="1" parent="1" source="3" target="4">
          <mxGeometry width="50" height="50" relative="1" as="geometry"/>
        </mxCell>

        <mxCell id="8" value="deploy" style="endArrow=classic;html=1;rounded=0;" edge="1" parent="1" source="4" target="5">
          <mxGeometry width="50" height="50" relative="1" as="geometry"/>
        </mxCell>
      </root>
    </mxGraphModel>
  </diagram>
</mxfile>
